# xmcd
#
# Track frame offsets:
#	150
#	12705
#	29071
#	48706
#	66426
#	79788
#	95625
#	110778
#	133592
#	151109
#	170786
#
# Disc length: 2445 seconds
#
# Revision: 1
# Processed by: cddbd v1.5.2PL0 Copyright (c) Steve Scherf et al.
# Submitted via: audiograbber 1.83.01
#
DISCID=a2098b0b
DTITLE=C. C. Adams - Lines
DYEAR=2009
DGENRE=
TTITLE0=Lines
TTITLE1=Ironic
TTITLE2=Marianka
TTITLE3=Where were You In  95
TTITLE4=After The War
TTITLE5=Fairytales
TTITLE6=I Know Why
TTITLE7=Like The Way I Do
TTITLE8=The Right Question
TTITLE9=Power Of The Water
TTITLE10=Lines (Reprise)
EXTD=
EXTT0=
EXTT1=
EXTT2=
EXTT3=
EXTT4=
EXTT5=
EXTT6=
EXTT7=
EXTT8=
EXTT9=
EXTT10=
PLAYORDER=
